<svg width="512" height="512" viewBox="0 0 512 512" fill="none" xmlns="http://www.w3.org/2000/svg">
<rect width="512" height="512" fill="white"/>
<path d="M235.344 483.708C220.396 479.918 204.815 467.817 197.896 454.623C193.916 447.034 190.723 434.924 190.746 427.504C190.792 412.603 197.219 397.027 207.656 386.524C218.694 375.414 230.72 370.096 247.253 369.012C262.826 367.992 276.159 370.955 286.218 377.673C290.873 380.781 292.664 381.488 294.039 380.761C295.019 380.243 301.425 378.157 308.273 376.128C332.486 368.951 345.167 361.493 363.858 343.433C370.836 336.691 377.952 330.343 379.672 329.327C381.669 328.148 383.012 326.413 383.389 324.528C384.356 319.693 384.06 296.645 382.926 288.492C381.978 281.678 382.139 279.641 384.521 268.248C389.589 244.019 388.885 209.966 382.95 192.16C368.861 149.897 335.853 115.863 296.319 102.836C280.755 97.707 270.9 96.2357 251.991 96.2178C232.208 96.1989 226.268 97.1549 208.324 103.245C185.669 110.933 161.909 128.097 146.052 148.229C131.226 167.051 120.715 191.823 117.894 214.59C116.702 224.206 117.346 254.835 118.913 263.052C122.376 281.217 122.384 281.344 121.022 294.704C119.558 309.059 120.056 323.423 122.629 341.059C123.493 346.982 123.978 352.049 123.707 352.32C122.823 353.205 105.663 352.725 101.574 351.701C99.3827 351.152 91.314 350.242 83.6438 349.677C59.5993 347.908 54.2599 345.312 54.2553 335.387L54.2529 330.291L48.718 327.399C41.2174 323.48 29.8858 314.404 23.5918 307.275C17.1368 299.964 11.3652 289.065 7.79488 277.447C5.23812 269.126 5.05152 267.299 5.00194 250.102C4.94029 228.717 6.31316 222.205 14.0608 207.13C21.3877 192.875 35.4806 180.802 47.884 178.157C51.4816 177.39 52.2654 176.823 52.2654 174.988C52.2654 167.54 60.8721 146.528 70.4282 130.646C98.6777 83.6948 138.488 51.3442 187.955 35.1415C212.044 27.2512 226.467 24.9848 252.489 25.0001C273.052 25.0121 284.192 26.2973 300.189 30.5028C318.256 35.2523 329.993 39.754 347.122 48.5033C388.619 69.6987 419.676 101.454 440.045 143.515C446.112 156.043 447.689 160.052 450.954 171.247C452.112 175.216 452.629 175.709 457.269 177.261C465.337 179.959 476.96 187.818 483.598 195.062C500.404 213.403 506.977 233.923 504.491 260.285C502.599 280.355 495.662 295.79 481.64 311.133C475.024 318.371 467.345 323.387 458.145 326.481L450.721 328.977L450.72 333.619C450.719 338.987 448.008 345.156 438.917 360.473C412.517 404.956 374.046 432.733 316.144 449.12L303.595 452.672L301.225 457.663C296.7 467.194 284.492 477.406 271.914 482.182C264.201 485.11 244.172 485.946 235.344 483.708Z" fill="#FF88FF"/>
<path d="M160.71 370.499C161.101 368.364 163.408 362.134 165.837 356.655C169.566 348.244 170.404 345.144 171.219 336.733C171.751 331.254 172.919 322.961 173.816 318.304C176.763 303.005 176.833 304.006 172.301 296.507C160.709 277.32 156.009 260.485 156 238.115C155.994 221.769 157.454 214.057 163.305 199.546C175.666 168.886 202.838 146.717 236.358 139.945C251.591 136.867 270.459 137.49 282.802 141.478C299.702 146.939 311.736 154.059 324.019 165.864C342.651 183.769 353.279 205.153 355.473 229.15C357.617 252.586 353.082 272.428 340.95 292.704C327.926 314.472 304.874 331.489 278.319 338.938C270.828 341.04 248.348 341.755 238.404 340.208C230.129 338.921 230.037 338.93 226.3 341.44C224.23 342.831 219.173 345.868 215.064 348.187C210.955 350.507 204.231 354.525 200.122 357.115C180.03 369.784 174.336 372.479 165.074 373.708L160 374.381L160.71 370.499ZM259.991 254.414C268.399 251.598 274.701 243.042 273.316 236.323C271.747 228.716 263.689 221.679 256.548 221.679C252.558 221.679 246.568 225.082 243.053 229.348C240.63 232.287 239.968 234.038 239.968 237.507C239.968 243.392 243.744 249.732 249.196 252.999C253.958 255.853 255.203 256.017 259.991 254.414ZM317.008 250.68C320.934 247.066 322.647 243.399 322.647 238.613C322.647 233.195 320.471 229.252 315.489 225.644C307.701 220.002 298.357 222.356 293.129 231.279C284.291 246.358 304.164 262.505 317.008 250.68ZM211.378 252.94C218.057 249.566 222.037 244.192 222.037 238.549C222.037 233.913 218.167 227.807 213.493 225.067C205.841 220.583 197.726 222.701 192.426 230.566C184.257 242.688 198.467 259.464 211.378 252.94Z" fill="#8888FF"/>
</svg>
