<svg width="512" height="512" viewBox="0 0 512 512" fill="none" xmlns="http://www.w3.org/2000/svg">
<rect width="512" height="512" fill="white"/>
<mask id="path-1-outside-1_1885_9" maskUnits="userSpaceOnUse" x="0" y="20" width="510" height="470" fill="black">
<rect fill="white" y="20" width="510" height="470"/>
<path d="M235.344 483.708C220.396 479.918 204.815 467.817 197.896 454.623C193.916 447.034 190.723 434.924 190.746 427.504C190.792 412.603 197.219 397.027 207.656 386.524C218.694 375.414 230.72 370.096 247.253 369.012C262.826 367.992 276.159 370.955 286.218 377.673C290.873 380.781 292.664 381.488 294.039 380.761C295.019 380.243 301.425 378.157 308.273 376.128C332.486 368.951 345.167 361.493 363.858 343.433C370.836 336.691 377.952 330.343 379.672 329.327C381.669 328.148 383.012 326.413 383.389 324.528C384.356 319.693 384.06 296.645 382.926 288.492C381.978 281.678 382.139 279.641 384.521 268.248C389.589 244.019 388.885 209.966 382.95 192.16C368.861 149.897 335.853 115.863 296.319 102.836C280.755 97.707 270.9 96.2357 251.991 96.2178C232.208 96.1989 226.268 97.1549 208.324 103.245C185.669 110.933 161.909 128.097 146.052 148.229C131.226 167.051 120.715 191.823 117.894 214.59C116.702 224.206 117.346 254.835 118.913 263.052C122.376 281.217 122.384 281.344 121.022 294.704C119.558 309.059 120.056 323.423 122.629 341.059C123.493 346.982 123.978 352.049 123.707 352.32C122.823 353.205 105.663 352.725 101.574 351.701C99.3827 351.152 91.314 350.242 83.6438 349.677C59.5993 347.908 54.2599 345.312 54.2553 335.387L54.2529 330.291L48.718 327.399C41.2174 323.48 29.8858 314.404 23.5918 307.275C17.1368 299.964 11.3652 289.065 7.79488 277.447C5.23812 269.126 5.05152 267.299 5.00194 250.102C4.94029 228.717 6.31316 222.205 14.0608 207.13C21.3877 192.875 35.4806 180.802 47.884 178.157C51.4816 177.39 52.2654 176.823 52.2654 174.988C52.2654 167.54 60.8721 146.528 70.4282 130.646C98.6777 83.6948 138.488 51.3442 187.955 35.1415C212.044 27.2512 226.467 24.9848 252.489 25.0001C273.052 25.0121 284.192 26.2973 300.189 30.5028C318.256 35.2523 329.993 39.754 347.122 48.5033C388.619 69.6987 419.676 101.454 440.045 143.515C446.112 156.043 447.689 160.052 450.954 171.247C452.112 175.216 452.629 175.709 457.269 177.261C465.337 179.959 476.96 187.818 483.598 195.062C500.404 213.403 506.977 233.923 504.491 260.285C502.599 280.355 495.662 295.79 481.64 311.133C475.024 318.371 467.345 323.387 458.145 326.481L450.721 328.977L450.72 333.619C450.719 338.987 448.008 345.156 438.917 360.473C412.517 404.956 374.046 432.733 316.144 449.12L303.595 452.672L301.225 457.663C296.7 467.194 284.492 477.406 271.914 482.182C264.201 485.11 244.172 485.946 235.344 483.708ZM262.885 460.418C272.368 456.223 279.659 448.279 282.775 438.746C284.381 433.831 284.619 433.603 289.136 432.651C317.576 426.654 349.753 413.514 372.091 398.774C394.826 383.772 414.828 360.368 427.213 334.276C434.016 319.942 434.783 311.756 434.775 253.588C434.771 224.105 434.347 201.193 433.738 197.437C432.261 188.335 424.858 166.665 419.06 154.473C408.562 132.398 397.166 116.735 379.045 99.4759C365.892 86.9489 352.453 77.6289 334.239 68.4023C305.568 53.8782 278.994 48.0249 247.01 49.1886C219.004 50.2075 198.485 55.19 173.794 66.9668C139.926 83.1212 116.703 102.961 98.1834 131.561C85.1701 151.659 76.1808 172.701 73.5916 189.124C71.8634 200.087 70.1063 283.517 71.1115 306.882L71.6901 320.33L77.6948 320.992C80.9974 321.357 86.4412 322.365 89.7922 323.234C93.1433 324.102 96.1839 324.812 96.5493 324.812C96.9147 324.812 97.1146 297.58 96.9936 264.297C96.754 198.438 96.6831 199.502 102.625 179.9C111.772 149.727 134.424 119.855 163.725 99.3228C179.856 88.0198 199.886 79.6255 221.593 75.0713C232.195 72.8471 236.595 72.4527 250.995 72.436C277.739 72.4047 298.276 77.136 321.721 88.7288C352.709 104.052 377.258 128.306 394.313 160.449C399.704 170.611 403.927 182.984 407.063 197.805C409.253 208.156 409.375 210.69 409.268 243.627C409.205 262.803 408.92 288.528 408.634 300.794L408.113 323.096L403.979 331.25C401.705 335.735 396.344 343.63 392.066 348.794C366.545 379.6 340.16 395.349 297.093 405.482L283.423 408.699L276.672 401.792C270.677 395.658 269.108 394.628 262.651 392.581C254.363 389.954 245.807 390.148 237.049 393.162C229.881 395.629 219.68 405.996 216.786 413.755C212.107 426.3 214.957 442.172 223.583 451.61C233.908 462.908 249.405 466.381 262.885 460.418ZM456.991 301.154C466.22 294.201 476.154 278.317 479.108 265.789C482.256 252.439 480.201 234.191 474.222 222.391C470.895 215.826 461.704 205.989 456.483 203.406C454.195 202.274 452.075 201.598 451.771 201.902C450.661 203.016 451.171 303.89 452.287 303.892C452.874 303.893 454.991 302.661 456.991 301.154ZM55.6392 252.094C56.0298 222.772 55.9181 203.225 55.3552 202.366C54.5691 201.166 53.9971 201.229 51.6033 202.779C40.9177 209.695 36.2659 215.526 31.334 228.187C28.246 236.114 28.0321 237.448 27.9794 249.106C27.9155 263.255 29.3858 270.299 34.7369 281.48C38.4503 289.24 43.6508 295.719 49.6593 300.071C52.6143 302.212 53.8204 302.629 54.3208 301.683C54.692 300.981 55.2853 278.666 55.6392 252.094Z"/>
</mask>
<path d="M235.344 483.708C220.396 479.918 204.815 467.817 197.896 454.623C193.916 447.034 190.723 434.924 190.746 427.504C190.792 412.603 197.219 397.027 207.656 386.524C218.694 375.414 230.72 370.096 247.253 369.012C262.826 367.992 276.159 370.955 286.218 377.673C290.873 380.781 292.664 381.488 294.039 380.761C295.019 380.243 301.425 378.157 308.273 376.128C332.486 368.951 345.167 361.493 363.858 343.433C370.836 336.691 377.952 330.343 379.672 329.327C381.669 328.148 383.012 326.413 383.389 324.528C384.356 319.693 384.06 296.645 382.926 288.492C381.978 281.678 382.139 279.641 384.521 268.248C389.589 244.019 388.885 209.966 382.95 192.16C368.861 149.897 335.853 115.863 296.319 102.836C280.755 97.707 270.9 96.2357 251.991 96.2178C232.208 96.1989 226.268 97.1549 208.324 103.245C185.669 110.933 161.909 128.097 146.052 148.229C131.226 167.051 120.715 191.823 117.894 214.59C116.702 224.206 117.346 254.835 118.913 263.052C122.376 281.217 122.384 281.344 121.022 294.704C119.558 309.059 120.056 323.423 122.629 341.059C123.493 346.982 123.978 352.049 123.707 352.32C122.823 353.205 105.663 352.725 101.574 351.701C99.3827 351.152 91.314 350.242 83.6438 349.677C59.5993 347.908 54.2599 345.312 54.2553 335.387L54.2529 330.291L48.718 327.399C41.2174 323.48 29.8858 314.404 23.5918 307.275C17.1368 299.964 11.3652 289.065 7.79488 277.447C5.23812 269.126 5.05152 267.299 5.00194 250.102C4.94029 228.717 6.31316 222.205 14.0608 207.13C21.3877 192.875 35.4806 180.802 47.884 178.157C51.4816 177.39 52.2654 176.823 52.2654 174.988C52.2654 167.54 60.8721 146.528 70.4282 130.646C98.6777 83.6948 138.488 51.3442 187.955 35.1415C212.044 27.2512 226.467 24.9848 252.489 25.0001C273.052 25.0121 284.192 26.2973 300.189 30.5028C318.256 35.2523 329.993 39.754 347.122 48.5033C388.619 69.6987 419.676 101.454 440.045 143.515C446.112 156.043 447.689 160.052 450.954 171.247C452.112 175.216 452.629 175.709 457.269 177.261C465.337 179.959 476.96 187.818 483.598 195.062C500.404 213.403 506.977 233.923 504.491 260.285C502.599 280.355 495.662 295.79 481.64 311.133C475.024 318.371 467.345 323.387 458.145 326.481L450.721 328.977L450.72 333.619C450.719 338.987 448.008 345.156 438.917 360.473C412.517 404.956 374.046 432.733 316.144 449.12L303.595 452.672L301.225 457.663C296.7 467.194 284.492 477.406 271.914 482.182C264.201 485.11 244.172 485.946 235.344 483.708ZM262.885 460.418C272.368 456.223 279.659 448.279 282.775 438.746C284.381 433.831 284.619 433.603 289.136 432.651C317.576 426.654 349.753 413.514 372.091 398.774C394.826 383.772 414.828 360.368 427.213 334.276C434.016 319.942 434.783 311.756 434.775 253.588C434.771 224.105 434.347 201.193 433.738 197.437C432.261 188.335 424.858 166.665 419.06 154.473C408.562 132.398 397.166 116.735 379.045 99.4759C365.892 86.9489 352.453 77.6289 334.239 68.4023C305.568 53.8782 278.994 48.0249 247.01 49.1886C219.004 50.2075 198.485 55.19 173.794 66.9668C139.926 83.1212 116.703 102.961 98.1834 131.561C85.1701 151.659 76.1808 172.701 73.5916 189.124C71.8634 200.087 70.1063 283.517 71.1115 306.882L71.6901 320.33L77.6948 320.992C80.9974 321.357 86.4412 322.365 89.7922 323.234C93.1433 324.102 96.1839 324.812 96.5493 324.812C96.9147 324.812 97.1146 297.58 96.9936 264.297C96.754 198.438 96.6831 199.502 102.625 179.9C111.772 149.727 134.424 119.855 163.725 99.3228C179.856 88.0198 199.886 79.6255 221.593 75.0713C232.195 72.8471 236.595 72.4527 250.995 72.436C277.739 72.4047 298.276 77.136 321.721 88.7288C352.709 104.052 377.258 128.306 394.313 160.449C399.704 170.611 403.927 182.984 407.063 197.805C409.253 208.156 409.375 210.69 409.268 243.627C409.205 262.803 408.92 288.528 408.634 300.794L408.113 323.096L403.979 331.25C401.705 335.735 396.344 343.63 392.066 348.794C366.545 379.6 340.16 395.349 297.093 405.482L283.423 408.699L276.672 401.792C270.677 395.658 269.108 394.628 262.651 392.581C254.363 389.954 245.807 390.148 237.049 393.162C229.881 395.629 219.68 405.996 216.786 413.755C212.107 426.3 214.957 442.172 223.583 451.61C233.908 462.908 249.405 466.381 262.885 460.418ZM456.991 301.154C466.22 294.201 476.154 278.317 479.108 265.789C482.256 252.439 480.201 234.191 474.222 222.391C470.895 215.826 461.704 205.989 456.483 203.406C454.195 202.274 452.075 201.598 451.771 201.902C450.661 203.016 451.171 303.89 452.287 303.892C452.874 303.893 454.991 302.661 456.991 301.154ZM55.6392 252.094C56.0298 222.772 55.9181 203.225 55.3552 202.366C54.5691 201.166 53.9971 201.229 51.6033 202.779C40.9177 209.695 36.2659 215.526 31.334 228.187C28.246 236.114 28.0321 237.448 27.9794 249.106C27.9155 263.255 29.3858 270.299 34.7369 281.48C38.4503 289.24 43.6508 295.719 49.6593 300.071C52.6143 302.212 53.8204 302.629 54.3208 301.683C54.692 300.981 55.2853 278.666 55.6392 252.094Z" fill="#FF88FF"/>
<path d="M235.344 483.708C220.396 479.918 204.815 467.817 197.896 454.623C193.916 447.034 190.723 434.924 190.746 427.504C190.792 412.603 197.219 397.027 207.656 386.524C218.694 375.414 230.72 370.096 247.253 369.012C262.826 367.992 276.159 370.955 286.218 377.673C290.873 380.781 292.664 381.488 294.039 380.761C295.019 380.243 301.425 378.157 308.273 376.128C332.486 368.951 345.167 361.493 363.858 343.433C370.836 336.691 377.952 330.343 379.672 329.327C381.669 328.148 383.012 326.413 383.389 324.528C384.356 319.693 384.06 296.645 382.926 288.492C381.978 281.678 382.139 279.641 384.521 268.248C389.589 244.019 388.885 209.966 382.95 192.16C368.861 149.897 335.853 115.863 296.319 102.836C280.755 97.707 270.9 96.2357 251.991 96.2178C232.208 96.1989 226.268 97.1549 208.324 103.245C185.669 110.933 161.909 128.097 146.052 148.229C131.226 167.051 120.715 191.823 117.894 214.59C116.702 224.206 117.346 254.835 118.913 263.052C122.376 281.217 122.384 281.344 121.022 294.704C119.558 309.059 120.056 323.423 122.629 341.059C123.493 346.982 123.978 352.049 123.707 352.32C122.823 353.205 105.663 352.725 101.574 351.701C99.3827 351.152 91.314 350.242 83.6438 349.677C59.5993 347.908 54.2599 345.312 54.2553 335.387L54.2529 330.291L48.718 327.399C41.2174 323.48 29.8858 314.404 23.5918 307.275C17.1368 299.964 11.3652 289.065 7.79488 277.447C5.23812 269.126 5.05152 267.299 5.00194 250.102C4.94029 228.717 6.31316 222.205 14.0608 207.13C21.3877 192.875 35.4806 180.802 47.884 178.157C51.4816 177.39 52.2654 176.823 52.2654 174.988C52.2654 167.54 60.8721 146.528 70.4282 130.646C98.6777 83.6948 138.488 51.3442 187.955 35.1415C212.044 27.2512 226.467 24.9848 252.489 25.0001C273.052 25.0121 284.192 26.2973 300.189 30.5028C318.256 35.2523 329.993 39.754 347.122 48.5033C388.619 69.6987 419.676 101.454 440.045 143.515C446.112 156.043 447.689 160.052 450.954 171.247C452.112 175.216 452.629 175.709 457.269 177.261C465.337 179.959 476.96 187.818 483.598 195.062C500.404 213.403 506.977 233.923 504.491 260.285C502.599 280.355 495.662 295.79 481.64 311.133C475.024 318.371 467.345 323.387 458.145 326.481L450.721 328.977L450.72 333.619C450.719 338.987 448.008 345.156 438.917 360.473C412.517 404.956 374.046 432.733 316.144 449.12L303.595 452.672L301.225 457.663C296.7 467.194 284.492 477.406 271.914 482.182C264.201 485.11 244.172 485.946 235.344 483.708ZM262.885 460.418C272.368 456.223 279.659 448.279 282.775 438.746C284.381 433.831 284.619 433.603 289.136 432.651C317.576 426.654 349.753 413.514 372.091 398.774C394.826 383.772 414.828 360.368 427.213 334.276C434.016 319.942 434.783 311.756 434.775 253.588C434.771 224.105 434.347 201.193 433.738 197.437C432.261 188.335 424.858 166.665 419.06 154.473C408.562 132.398 397.166 116.735 379.045 99.4759C365.892 86.9489 352.453 77.6289 334.239 68.4023C305.568 53.8782 278.994 48.0249 247.01 49.1886C219.004 50.2075 198.485 55.19 173.794 66.9668C139.926 83.1212 116.703 102.961 98.1834 131.561C85.1701 151.659 76.1808 172.701 73.5916 189.124C71.8634 200.087 70.1063 283.517 71.1115 306.882L71.6901 320.33L77.6948 320.992C80.9974 321.357 86.4412 322.365 89.7922 323.234C93.1433 324.102 96.1839 324.812 96.5493 324.812C96.9147 324.812 97.1146 297.58 96.9936 264.297C96.754 198.438 96.6831 199.502 102.625 179.9C111.772 149.727 134.424 119.855 163.725 99.3228C179.856 88.0198 199.886 79.6255 221.593 75.0713C232.195 72.8471 236.595 72.4527 250.995 72.436C277.739 72.4047 298.276 77.136 321.721 88.7288C352.709 104.052 377.258 128.306 394.313 160.449C399.704 170.611 403.927 182.984 407.063 197.805C409.253 208.156 409.375 210.69 409.268 243.627C409.205 262.803 408.92 288.528 408.634 300.794L408.113 323.096L403.979 331.25C401.705 335.735 396.344 343.63 392.066 348.794C366.545 379.6 340.16 395.349 297.093 405.482L283.423 408.699L276.672 401.792C270.677 395.658 269.108 394.628 262.651 392.581C254.363 389.954 245.807 390.148 237.049 393.162C229.881 395.629 219.68 405.996 216.786 413.755C212.107 426.3 214.957 442.172 223.583 451.61C233.908 462.908 249.405 466.381 262.885 460.418ZM456.991 301.154C466.22 294.201 476.154 278.317 479.108 265.789C482.256 252.439 480.201 234.191 474.222 222.391C470.895 215.826 461.704 205.989 456.483 203.406C454.195 202.274 452.075 201.598 451.771 201.902C450.661 203.016 451.171 303.89 452.287 303.892C452.874 303.893 454.991 302.661 456.991 301.154ZM55.6392 252.094C56.0298 222.772 55.9181 203.225 55.3552 202.366C54.5691 201.166 53.9971 201.229 51.6033 202.779C40.9177 209.695 36.2659 215.526 31.334 228.187C28.246 236.114 28.0321 237.448 27.9794 249.106C27.9155 263.255 29.3858 270.299 34.7369 281.48C38.4503 289.24 43.6508 295.719 49.6593 300.071C52.6143 302.212 53.8204 302.629 54.3208 301.683C54.692 300.981 55.2853 278.666 55.6392 252.094Z" stroke="#FF88FF" stroke-width="10" mask="url(#path-1-outside-1_1885_9)"/>
<path d="M160.71 370.499C161.101 368.364 163.408 362.134 165.837 356.655C169.566 348.244 170.404 345.144 171.219 336.733C171.751 331.254 172.919 322.961 173.816 318.304C176.763 303.005 176.833 304.006 172.301 296.507C160.709 277.32 156.009 260.485 156 238.115C155.994 221.769 157.454 214.057 163.305 199.546C175.666 168.886 202.838 146.717 236.358 139.945C251.591 136.867 270.459 137.49 282.802 141.478C299.702 146.939 311.736 154.059 324.019 165.864C342.651 183.769 353.279 205.153 355.473 229.15C357.617 252.586 353.082 272.428 340.95 292.704C327.926 314.472 304.874 331.489 278.319 338.938C270.828 341.04 248.348 341.755 238.404 340.208C230.129 338.921 230.037 338.93 226.3 341.44C224.23 342.831 219.173 345.868 215.064 348.187C210.955 350.507 204.231 354.525 200.122 357.115C180.03 369.784 174.336 372.479 165.074 373.708L160 374.381L160.71 370.499ZM259.991 254.414C268.399 251.598 274.701 243.042 273.316 236.323C271.747 228.716 263.689 221.679 256.548 221.679C252.558 221.679 246.568 225.082 243.053 229.348C240.63 232.287 239.968 234.038 239.968 237.507C239.968 243.392 243.744 249.732 249.196 252.999C253.958 255.853 255.203 256.017 259.991 254.414ZM317.008 250.68C320.934 247.066 322.647 243.399 322.647 238.613C322.647 233.195 320.471 229.252 315.489 225.644C307.701 220.002 298.357 222.356 293.129 231.279C284.291 246.358 304.164 262.505 317.008 250.68ZM211.378 252.94C218.057 249.566 222.037 244.192 222.037 238.549C222.037 233.913 218.167 227.807 213.493 225.067C205.841 220.583 197.726 222.701 192.426 230.566C184.257 242.688 198.467 259.464 211.378 252.94Z" fill="#8888FF"/>
</svg>
